<svg version="1.1" xmlns="http://www.w3.org/2000/svg" xmlns:xlink="http://www.w3.org/1999/xlink" width="316" height="216"><defs/><g><g transform="translate(-342,-310) scale(1,1)"><path fill="#C0C0C0" stroke="none" d="M 431 337 L 644 337 L 644 374 L 431 374" opacity="0.2"/></g><g transform="translate(-342,-310) scale(1,1)"><path fill="#C0C0C0" stroke="none" d="M 431 337 L 441 327 L 654 327 L 644 337" opacity="0.2"/></g><g transform="translate(-342,-310) scale(1,1)"><path fill="#C0C0C0" stroke="none" d="M 654 327 L 644 337 L 644 374 L 654 364" opacity="0.2"/></g><g transform="translate(-342,-310) scale(1,1)"><path fill="#ffffff" stroke="none" d="M 424 330 L 637 330 L 637 367 L 424 367"/></g><g transform="translate(-342,-310) scale(1,1)"><path fill="#ffffff" stroke="none" d="M 424 330 L 434 320 L 647 320 L 637 330"/></g><g transform="translate(-342,-310) scale(1,1)"><path fill="#ffffff" stroke="none" d="M 647 320 L 637 330 L 637 367 L 647 357"/></g><g transform="translate(-342,-310) scale(1,1)"><path fill="none" stroke="#000000" d="M 424 330 L 637 330 L 637 367 L 424 367 L 424 330" stroke-miterlimit="10"/></g><g transform="translate(-342,-310) scale(1,1)"><path fill="none" stroke="#000000" d="M 424 330 L 434 320 L 647 320 L 637 330 L 424 330" stroke-miterlimit="10"/></g><g transform="translate(-342,-310) scale(1,1)"><path fill="none" stroke="#000000" d="M 647 320 L 637 330 L 637 367 L 647 357 L 647 320" stroke-miterlimit="10"/></g><g transform="translate(-342,-310) scale(1,1)"><g><path fill="none" stroke="none"/><text fill="#000000" stroke="none" font-family="Arial" font-size="13px" font-style="normal" font-weight="bold" text-decoration="none" x="481.853271484375" y="349.5">dmonlinebanking</text><path fill="none" stroke="#000000" d="M 584.805908203125 349.5 L 477.194091796875 349.5" stroke-miterlimit="10"/></g></g><g transform="translate(-342,-310) scale(1,1)"><rect fill="#C0C0C0" stroke="none" x="369" y="479" width="204.70703125" height="44" opacity="0.2"/></g><g transform="translate(-342,-310) scale(1,1)"><rect fill="#ffffff" stroke="none" x="362" y="472" width="204.70703125" height="44"/></g><g transform="translate(-342,-310) scale(1,1)"><path fill="none" stroke="#000000" d="M 362 472 L 566.70703125 472 L 566.70703125 516 L 362 516 L 362 472 Z Z" stroke-miterlimit="10"/></g><g transform="translate(-342,-310) scale(1,1)"><rect fill="#ffffff" stroke="none" x="352" y="479" width="20" height="10"/></g><g transform="translate(-342,-310) scale(1,1)"><path fill="none" stroke="#000000" d="M 352 479 L 372 479 L 372 489 L 352 489 L 352 479 Z Z" stroke-miterlimit="10"/></g><g transform="translate(-342,-310) scale(1,1)"><rect fill="#ffffff" stroke="none" x="352" y="499" width="20" height="10"/></g><g transform="translate(-342,-310) scale(1,1)"><path fill="none" stroke="#000000" d="M 352 499 L 372 499 L 372 509 L 352 509 L 352 499 Z Z" stroke-miterlimit="10"/></g><g transform="translate(-342,-310) scale(1,1)"><g><path fill="none" stroke="none"/><text fill="#000000" stroke="none" font-family="Arial" font-size="13px" font-style="normal" font-weight="bold" text-decoration="none" x="383.371337890625" y="491.5">clientmanagementservices.jar</text><path fill="none" stroke="#000000" d="M 562.20703125 491.5 L 376.5 491.5" stroke-miterlimit="10"/></g></g><g transform="translate(-342,-310) scale(1,1)"><path fill="none" stroke="#000000" d="M 471 471 L 523 369" stroke-miterlimit="10" stroke-dasharray="3"/></g><g transform="translate(-342,-310) scale(1,1)"><path fill="none" stroke="#000000" d="M 522.1345258915784 379.9658996241828 L 523 369 L 514.6339554029231 376.1420793750644" stroke-miterlimit="10"/></g><g transform="translate(-342,-310) scale(1,1)"><g><path fill="none" stroke="none"/><text fill="#000000" stroke="none" font-family="Arial" font-size="13px" font-style="normal" font-weight="normal" text-decoration="none" x="461" y="420">+deploy</text></g></g></g></svg>